<svg width="64" height="64" viewBox="0 0 64 64" fill="none" xmlns="http://www.w3.org/2000/svg">
<path d="M32.0002 30.6668C30.2321 30.6668 28.5364 29.9644 27.2861 28.7142C26.0359 27.464 25.3335 25.7683 25.3335 24.0002C25.3335 22.232 26.0359 20.5364 27.2861 19.2861C28.5364 18.0359 30.2321 17.3335 32.0002 17.3335C33.7683 17.3335 35.464 18.0359 36.7142 19.2861C37.9644 20.5364 38.6668 22.232 38.6668 24.0002C38.6668 24.8756 38.4944 25.7425 38.1594 26.5514C37.8243 27.3602 37.3333 28.0951 36.7142 28.7142C36.0951 29.3333 35.3602 29.8243 34.5514 30.1594C33.7425 30.4944 32.8756 30.6668 32.0002 30.6668ZM32.0002 5.3335C27.0495 5.3335 22.3015 7.30016 18.8008 10.8008C15.3002 14.3015 13.3335 19.0495 13.3335 24.0002C13.3335 38.0002 32.0002 58.6668 32.0002 58.6668C32.0002 58.6668 50.6668 38.0002 50.6668 24.0002C50.6668 19.0495 48.7002 14.3015 45.1995 10.8008C41.6988 7.30016 36.9509 5.3335 32.0002 5.3335Z" fill="#8874DD"/>
</svg>
