<svg width="64" height="64" viewBox="0 0 64 64" fill="none" xmlns="http://www.w3.org/2000/svg">
<path d="M58.5863 48.8777C58.5863 49.8377 58.373 50.8244 57.9197 51.7844C57.4663 52.7444 56.8797 53.6511 56.1063 54.5044C54.7997 55.9444 53.3597 56.9844 51.733 57.6511C50.133 58.3177 48.3997 58.6644 46.533 58.6644C43.813 58.6644 40.9063 58.0244 37.8397 56.7177C34.773 55.4111 31.7063 53.6511 28.6663 51.4377C25.5997 49.1977 22.693 46.7177 19.9197 43.9711C17.173 41.1977 14.693 38.2911 12.4797 35.2511C10.293 32.2111 8.53301 29.1711 7.25301 26.1577C5.97301 23.1177 5.33301 20.2111 5.33301 17.4377C5.33301 15.6244 5.65301 13.8911 6.29301 12.2911C6.93301 10.6644 7.94634 9.17105 9.35967 7.83772C11.0663 6.15772 12.933 5.33105 14.9063 5.33105C15.653 5.33105 16.3997 5.49105 17.0663 5.81105C17.7597 6.13105 18.373 6.61105 18.853 7.30439L25.0397 16.0244C25.5197 16.6911 25.8663 17.3044 26.1063 17.8911C26.3463 18.4511 26.4797 19.0111 26.4797 19.5177C26.4797 20.1577 26.293 20.7977 25.9197 21.4111C25.573 22.0244 25.0663 22.6644 24.4263 23.3044L22.3997 25.4111C22.1063 25.7044 21.973 26.0511 21.973 26.4777C21.973 26.6911 21.9997 26.8777 22.053 27.0911C22.133 27.3044 22.213 27.4644 22.2663 27.6244C22.7463 28.5044 23.573 29.6511 24.7463 31.0377C25.9463 32.4244 27.2263 33.8377 28.613 35.2511C30.053 36.6644 31.4397 37.9711 32.853 39.1711C34.2397 40.3444 35.3863 41.1444 36.293 41.6244C36.4263 41.6777 36.5863 41.7577 36.773 41.8377C36.9863 41.9177 37.1997 41.9444 37.4397 41.9444C37.893 41.9444 38.2397 41.7844 38.533 41.4911L40.5597 39.4911C41.2263 38.8244 41.8663 38.3177 42.4797 37.9977C43.093 37.6244 43.7063 37.4377 44.373 37.4377C44.8797 37.4377 45.413 37.5444 45.9997 37.7844C46.5863 38.0244 47.1997 38.3711 47.8663 38.8244L56.693 45.0911C57.3863 45.5711 57.8663 46.1311 58.1597 46.7977C58.4263 47.4644 58.5863 48.1311 58.5863 48.8777Z" fill="#8874DD"/>
</svg>
