<svg width="64" height="64" viewBox="0 0 64 64" fill="none" xmlns="http://www.w3.org/2000/svg">
<path d="M35.9293 37.8182C34.6107 38.6973 33.0791 39.1619 31.5 39.1619C29.921 39.1619 28.3894 38.6973 27.0708 37.8182L5.35288 23.3392C5.23299 23.259 5.11532 23.1756 5 23.089L5 46.8144C5 49.5346 7.20747 51.6934 9.879 51.6934H53.1209C55.8411 51.6934 57.9999 49.486 57.9999 46.8144V23.0889C57.8844 23.1757 57.7665 23.2593 57.6463 23.3396L35.9293 37.8182Z" fill="#8874DD"/>
<path d="M7.07549 20.7566L28.7934 35.2357C29.6155 35.7839 30.5577 36.0579 31.4999 36.0579C32.4422 36.0579 33.3845 35.7838 34.2066 35.2357L55.9245 20.7566C57.2242 19.8907 58 18.4415 58 16.8773C58 14.1879 55.812 12 53.1227 12H9.87735C7.18801 12.0001 5 14.188 5 16.8799C4.9992 17.6472 5.1883 18.4027 5.55044 19.0792C5.91258 19.7556 6.43651 20.3319 7.07549 20.7566Z" fill="#8874DD"/>
</svg>
