<svg width="547" height="456" viewBox="0 0 547 456" fill="none" xmlns="http://www.w3.org/2000/svg">
<mask id="mask0_564_14314" style="mask-type:alpha" maskUnits="userSpaceOnUse" x="0" y="0" width="547" height="456">
<path d="M0 30C0 13.4315 13.4315 0 30 0H275.594C282.941 0 290.033 2.69636 295.525 7.57772L368.475 72.4223C373.967 77.3036 381.059 80 388.406 80H517C533.569 80 547 93.4315 547 110V426C547 442.569 533.569 456 517 456H102.426C94.4699 456 86.8393 452.839 81.2132 447.213L8.78679 374.787C3.1607 369.161 0 361.53 0 353.574V30Z" fill="#D9D9D9"/>
</mask>
<g mask="url(#mask0_564_14314)">
<path d="M-12 0H551V456H-12V0Z" fill="#8874DD"/>
</g>
</svg>
