<svg width="18" height="22" fill="none" xmlns="http://www.w3.org/2000/svg"><path d="M15.18 0H2.434A1.936 1.936 0 0 0 .5 1.934v18.132C.5 21.133 1.367 22 2.434 22H15.18a1.936 1.936 0 0 0 1.934-1.934V1.934A1.936 1.936 0 0 0 15.18 0ZM3.125 3.796c0-.283.232-.515.516-.515h10.504c.284 0 .516.232.516.515v1.966a.517.517 0 0 1-.515.516H3.64a.517.517 0 0 1-.516-.516V3.796Zm6.285 7.05H8.204a.645.645 0 0 1-.644-.645v-.876c0-.356.288-.645.644-.645H9.41c.356 0 .644.289.644.645v.876a.645.645 0 0 1-.644.644Zm.644 2.63v.876a.645.645 0 0 1-.644.645H8.204a.645.645 0 0 1-.644-.645v-.876c0-.356.288-.644.644-.644H9.41c.356 0 .644.288.644.644Zm-4.607 5.028a.645.645 0 0 1-.645.645H3.597a.645.645 0 0 1-.644-.645v-.876c0-.356.288-.644.644-.644h1.205c.356 0 .645.288.645.644v.876Zm0-4.152a.645.645 0 0 1-.645.645H3.597a.645.645 0 0 1-.644-.645v-.876c0-.356.288-.644.644-.644h1.205c.356 0 .645.288.645.644v.876Zm0-4.151a.645.645 0 0 1-.645.644H3.597a.645.645 0 0 1-.644-.644v-.876c0-.356.288-.645.644-.645h1.205c.356 0 .645.289.645.645v.876Zm9.214 8.303a.645.645 0 0 1-.644.645H8.204a.645.645 0 0 1-.644-.645v-.876c0-.356.288-.644.644-.644h5.813c.356 0 .644.288.644.644v.876Zm0-4.152a.645.645 0 0 1-.644.645H12.81a.645.645 0 0 1-.644-.645v-.876c0-.356.288-.644.644-.644h1.206c.356 0 .644.288.644.644v.876Zm0-4.151a.645.645 0 0 1-.644.644H12.81a.645.645 0 0 1-.644-.644v-.876c0-.356.288-.645.644-.645h1.206c.356 0 .644.289.644.645v.876Z" fill="#fff"/></svg>