<svg width="32" height="32" fill="none" xmlns="http://www.w3.org/2000/svg"><rect width="32" height="32" rx="8" fill="#8874DD"/><path fill-rule="evenodd" clip-rule="evenodd" d="m11.259 12.036 1.018 2.035h7.446l1.018-2.035L21.76 10H10.241l1.018 2.036ZM10 16.248V22l.964-.77.964-.77-.001-3.067-.001-3.067-.962-1.915-.961-1.915L10 16.247Zm11.028-3.824-.958 1.915v3.06l.001 3.06.964.77L22 22v-5.746c0-3.16-.003-5.745-.007-5.745-.003 0-.438.862-.964 1.915Zm-9.735-1.754c-.067.027-.115.105-.115.185 0 .03.301.659.67 1.396.553 1.107.682 1.344.738 1.366.093.035 6.733.035 6.826 0 .056-.022.185-.26.738-1.366.369-.737.67-1.369.67-1.404a.242.242 0 0 0-.05-.127l-.052-.064-4.683-.005c-2.667-.003-4.709.005-4.742.019Zm.447.415c0 .007.093.2.207.428l.207.415h3.632v-.857h-2.023c-1.112 0-2.022.006-2.022.014Zm4.473.415v.428h3.632l.207-.415c.114-.228.207-.421.207-.428 0-.008-.91-.014-2.022-.014h-2.023v.429Zm-3.83.87c0 .008.093.2.207.429l.207.415h2.988v-.857h-1.701c-.936 0-1.701.006-1.701.013Zm3.83.416v.428h2.988l.207-.415c.114-.229.207-.421.207-.429 0-.007-.765-.013-1.7-.013h-1.702v.429Zm-3.857 4.607v2.892h7.286V14.5h-7.286v2.893Z" fill="#fff"/></svg>