<svg width="64" height="64" fill="none" xmlns="http://www.w3.org/2000/svg"><path d="M58.586 48.878c0 .96-.213 1.946-.666 2.906a11 11 0 0 1-1.814 2.72c-1.306 1.44-2.746 2.48-4.373 3.147-1.6.667-3.333 1.013-5.2 1.013-2.72 0-5.627-.64-8.693-1.946-3.067-1.307-6.134-3.067-9.174-5.28a76.675 76.675 0 0 1-8.746-7.467 75.769 75.769 0 0 1-7.44-8.72c-2.187-3.04-3.947-6.08-5.227-9.093-1.28-3.04-1.92-5.947-1.92-8.72 0-1.814.32-3.547.96-5.147.64-1.627 1.653-3.12 3.067-4.453 1.706-1.68 3.573-2.507 5.546-2.507.747 0 1.494.16 2.16.48.694.32 1.307.8 1.787 1.493l6.187 8.72c.48.667.826 1.28 1.066 1.867.24.56.374 1.12.374 1.627 0 .64-.187 1.28-.56 1.893-.347.613-.854 1.253-1.494 1.893L22.4 25.411c-.294.293-.427.64-.427 1.067 0 .213.027.4.08.613.08.213.16.373.213.533.48.88 1.307 2.027 2.48 3.414 1.2 1.386 2.48 2.8 3.867 4.213 1.44 1.413 2.827 2.72 4.24 3.92 1.387 1.173 2.533 1.973 3.44 2.453.133.054.293.134.48.214.213.08.427.106.667.106.453 0 .8-.16 1.093-.453l2.027-2c.666-.667 1.306-1.173 1.92-1.493.613-.374 1.226-.56 1.893-.56.507 0 1.04.106 1.627.346.586.24 1.2.587 1.866 1.04l8.827 6.267c.693.48 1.173 1.04 1.467 1.707.266.666.426 1.333.426 2.08Z" fill="#8874DD"/></svg>