<svg width="24" height="25" fill="none" xmlns="http://www.w3.org/2000/svg"><path d="M13.671 15.244a3.004 3.004 0 0 1-3.342 0L2.133 9.78A2.976 2.976 0 0 1 2 9.686v8.953a1.84 1.84 0 0 0 1.841 1.841H20.16A1.84 1.84 0 0 0 22 18.64V9.685a2.929 2.929 0 0 1-.134.095l-8.195 5.463Z" fill="#28292E"/><path d="m2.783 8.805 8.196 5.464a1.84 1.84 0 0 0 2.042 0l8.196-5.464c.49-.326.783-.873.783-1.464 0-1.014-.826-1.84-1.84-1.84H3.84C2.827 5.501 2 6.327 2 7.342a1.755 1.755 0 0 0 .783 1.463Z" fill="#28292E"/></svg>