<svg width="24" height="24" fill="none" xmlns="http://www.w3.org/2000/svg"><path d="M9.718 4H5.432a1.43 1.43 0 0 0-1.428 1.43v4.285c0 .789.64 1.429 1.428 1.429h4.286c.79 0 1.429-.64 1.429-1.429V5.429c0-.789-.64-1.428-1.429-1.428Zm8.145 0h-4.286a1.43 1.43 0 0 0-1.429 1.43v4.285c0 .789.64 1.429 1.429 1.429h4.286c.789 0 1.428-.64 1.428-1.429V5.429c0-.789-.64-1.428-1.428-1.428Zm-8.145 8.144H5.432c-.788 0-1.428.64-1.428 1.428v4.286c0 .79.64 1.429 1.428 1.429h4.286c.79 0 1.429-.64 1.429-1.429v-4.286c0-.789-.64-1.428-1.429-1.428Zm8.145 0h-4.286a1.43 1.43 0 0 0-1.429 1.428v4.286c0 .79.64 1.429 1.429 1.429h4.286c.789 0 1.428-.64 1.428-1.429v-4.286c0-.789-.64-1.428-1.428-1.428Z" fill="#EEE"/></svg>