<svg width="24" height="24" fill="none" xmlns="http://www.w3.org/2000/svg"><path fill-rule="evenodd" clip-rule="evenodd" d="m5.679 6.715 1.357 2.714h9.928l1.357-2.714L19.68 4H4.32l1.36 2.715ZM4.002 12.33 4 20.001l1.285-1.027 1.285-1.027-.001-4.09-.002-4.089-1.281-2.553L4.004 4.66l-.002 7.67Zm14.703-5.098L17.43 9.786v8.16l1.286 1.028L20 20v-7.66c0-4.213-.004-7.66-.009-7.66-.005 0-.584 1.148-1.286 2.553Zm-12.98-2.34a.272.272 0 0 0-.154.248c0 .041.402.878.894 1.86.738 1.476.91 1.794.984 1.822.124.047 8.978.047 9.102 0 .075-.028.246-.346.984-1.821.491-.983.894-1.825.894-1.872a.323.323 0 0 0-.069-.17l-.068-.084-6.244-.007c-3.555-.004-6.278.007-6.322.025Zm.596.554c0 .01.125.267.277.571l.276.554h4.84V5.43H9.018c-1.483 0-2.697.008-2.697.018ZM12.286 6v.571h4.84l.276-.554c.152-.304.277-.562.277-.571 0-.01-1.214-.018-2.697-.018h-2.696V6ZM7.179 7.16c0 .01.124.267.276.572l.276.553h3.983V7.144H9.446c-1.247 0-2.267.007-2.267.017Zm5.107.554v.571h3.983l.276-.553c.152-.305.276-.562.276-.572 0-.01-1.02-.017-2.267-.017h-2.268v.57Zm-5.143 6.143v3.857h9.714V10H7.143v3.857Z" fill="#EEE"/></svg>