<svg width="60" height="60" fill="none" xmlns="http://www.w3.org/2000/svg"><path d="m23.131 13.308 1.55-4.001A3.605 3.605 0 0 1 28.033 7h2.956a3.604 3.604 0 0 1 3.352 2.307l1.55 4 5.262 3.028 4.253-.648a3.605 3.605 0 0 1 3.605 1.766l1.441 2.523a3.606 3.606 0 0 1-.288 4.073L47.533 27.4v6.055l2.703 3.352a3.604 3.604 0 0 1 .289 4.073l-1.442 2.523a3.604 3.604 0 0 1-3.605 1.767l-4.253-.65-5.262 3.029-1.55 4a3.604 3.604 0 0 1-3.352 2.307h-3.028a3.604 3.604 0 0 1-3.352-2.307l-1.55-4-5.262-3.028-4.254.649a3.605 3.605 0 0 1-3.604-1.767L8.569 40.88a3.604 3.604 0 0 1 .289-4.073l2.63-3.352V27.4l-2.702-3.352a3.605 3.605 0 0 1-.289-4.073l1.442-2.523a3.605 3.605 0 0 1 3.604-1.766l4.254.648 5.334-3.027Zm-.829 17.12a7.209 7.209 0 1 0 14.418 0 7.209 7.209 0 0 0-14.418 0Z" fill="#8874dd"/></svg>