<svg width="61" height="60" fill="none" xmlns="http://www.w3.org/2000/svg"><path d="M52.267 19.229a2.482 2.482 0 0 0-.408-.967 2.548 2.548 0 0 0-.776-.72l-6.77 6.613c-.316.32-.694.575-1.113.749a3.456 3.456 0 0 1-2.648 0 3.387 3.387 0 0 1-1.113-.749l-2.572-2.248a3.268 3.268 0 0 1-.968-2.315c0-.865.348-1.696.968-2.314l6.77-6.613a2.516 2.516 0 0 0-.651-.888 2.59 2.59 0 0 0-.974-.534 13.148 13.148 0 0 0-7.062.568 12.841 12.841 0 0 0-5.682 4.136 12.4 12.4 0 0 0-2.578 6.448c-.224 2.342.23 4.7 1.309 6.803L9.519 45.086a3.304 3.304 0 0 0-.754 1.082 3.24 3.24 0 0 0 0 2.565c.175.406.431.774.753 1.082l1.219 1.19c.315.315.692.565 1.107.736a3.453 3.453 0 0 0 2.626 0c.415-.17.792-.42 1.107-.736l18.48-18.02a13.164 13.164 0 0 0 6.922 1.152 13.066 13.066 0 0 0 6.514-2.56 12.625 12.625 0 0 0 4.175-5.514c.843-2.18 1.05-4.546.6-6.834Z" fill="#8874dd"/></svg>