<svg width="32" height="32" fill="none" xmlns="http://www.w3.org/2000/svg"><rect width="32" height="32" rx="8" fill="#8874DD"/><path d="M14.286 10H11.07c-.59 0-1.07.48-1.07 1.071v3.215c0 .591.48 1.071 1.071 1.071h3.215c.591 0 1.071-.48 1.071-1.071V11.07c0-.591-.48-1.071-1.071-1.071Zm6.107 0h-3.215c-.591 0-1.071.48-1.071 1.071v3.215c0 .591.48 1.071 1.071 1.071h3.215c.591 0 1.071-.48 1.071-1.071V11.07c0-.591-.48-1.071-1.071-1.071Zm-6.107 6.107H11.07c-.591 0-1.071.48-1.071 1.072v3.214c0 .592.48 1.072 1.071 1.072h3.215c.591 0 1.071-.48 1.071-1.072V17.18c0-.592-.48-1.072-1.071-1.072Zm6.107 0h-3.215c-.591 0-1.071.48-1.071 1.072v3.214c0 .592.48 1.072 1.071 1.072h3.215c.591 0 1.071-.48 1.071-1.072V17.18c0-.592-.48-1.072-1.071-1.072Z" fill="#fff"/></svg>