<svg width="547" height="456" fill="none" xmlns="http://www.w3.org/2000/svg"><mask id="a" style="mask-type:alpha" maskUnits="userSpaceOnUse" x="0" y="0" width="547" height="456"><path d="M0 30C0 13.431 13.431 0 30 0h245.594a30.002 30.002 0 0 1 19.931 7.578l72.95 64.844A30.002 30.002 0 0 0 388.406 80H517c16.569 0 30 13.431 30 30v316c0 16.569-13.431 30-30 30H102.426a30 30 0 0 1-21.213-8.787L8.787 374.787A30 30 0 0 1 0 353.574V30Z" fill="#D9D9D9"/></mask><g mask="url(#a)"><path d="M-12 0h563v456H-12V0Z" fill="#8874DD"/></g></svg>