<svg width="32" height="32" fill="none" xmlns="http://www.w3.org/2000/svg"><rect width="32" height="32" rx="8" fill="#8874DD"/><path d="M17.656 10.957a.151.151 0 0 1 .105-.056.155.155 0 0 1 .114.037l.56.487-1.763 2.175h1.168l1.281-1.58 1.005.875a.149.149 0 0 1 .016.209l-.42.496h1.182a1.04 1.04 0 0 0-.175-1.38l-2.25-1.958a1.069 1.069 0 0 0-.8-.258 1.075 1.075 0 0 0-.74.396l-2.555 3.2h1.162l2.11-2.643ZM12.118 13.3a.46.46 0 0 0-.322.132.447.447 0 0 0 0 .636.46.46 0 0 0 .322.132h7.906a1.99 1.99 0 0 1 1.397.571c.37.366.579.862.579 1.379v3.9c0 .517-.208 1.013-.579 1.379a1.99 1.99 0 0 1-1.397.571h-7.298a1.99 1.99 0 0 1-1.397-.571 1.937 1.937 0 0 1-.579-1.379v-6.3c0-.358.144-.702.4-.955a1.38 1.38 0 0 1 .968-.395h2.627l-.725.9h-1.902Zm6.233 4.95c0 .248.205.45.456.45h1.217a.46.46 0 0 0 .322-.132.446.446 0 0 0 0-.636.46.46 0 0 0-.322-.132h-1.217a.46.46 0 0 0-.322.132.447.447 0 0 0-.134.318Z" fill="#fff"/></svg>