<svg width="24" height="24" viewBox="0 0 24 24" fill="none" xmlns="http://www.w3.org/2000/svg">
<path d="M12 11.501C11.337 11.501 10.7011 11.2376 10.2322 10.7687C9.76339 10.2999 9.5 9.66402 9.5 9.00098C9.5 8.33793 9.76339 7.70205 10.2322 7.23321C10.7011 6.76437 11.337 6.50098 12 6.50098C12.663 6.50098 13.2989 6.76437 13.7678 7.23321C14.2366 7.70205 14.5 8.33793 14.5 9.00098C14.5 9.32928 14.4353 9.65437 14.3097 9.95768C14.1841 10.261 13.9999 10.5366 13.7678 10.7687C13.5356 11.0009 13.26 11.185 12.9567 11.3107C12.6534 11.4363 12.3283 11.501 12 11.501ZM12 2.00098C10.1435 2.00098 8.36301 2.73847 7.05025 4.05123C5.7375 5.36398 5 7.14446 5 9.00098C5 14.251 12 22.001 12 22.001C12 22.001 19 14.251 19 9.00098C19 7.14446 18.2625 5.36398 16.9497 4.05123C15.637 2.73847 13.8565 2.00098 12 2.00098Z" fill="#28292E"/>
</svg>
