<svg width="24" height="24" viewBox="0 0 24 24" fill="none" xmlns="http://www.w3.org/2000/svg">
<g id="icons 24/24">
<path id="Arrow 1" d="M1 11C0.447715 11 0 11.4477 0 12C0 12.5523 0.447715 13 1 13V11ZM22.9203 12.7071C23.3108 12.3166 23.3108 11.6834 22.9203 11.2929L16.5563 4.92893C16.1658 4.53841 15.5327 4.53841 15.1421 4.92893C14.7516 5.31946 14.7516 5.95262 15.1421 6.34315L20.799 12L15.1421 17.6569C14.7516 18.0474 14.7516 18.6805 15.1421 19.0711C15.5327 19.4616 16.1658 19.4616 16.5563 19.0711L22.9203 12.7071ZM1 13L22.2132 13V11L1 11V13Z" fill="#F3F3F3"/>
</g>
</svg>
