<svg width="37" height="24" viewBox="0 0 37 24" fill="none" xmlns="http://www.w3.org/2000/svg">
<rect x="13" width="24" height="24" rx="5" fill="#8874DD"/>
<path d="M11 11L10 11L10 13L11 13L11 11ZM29.7071 12.7071C30.0976 12.3166 30.0976 11.6834 29.7071 11.2929L23.3431 4.92893C22.9526 4.53841 22.3195 4.53841 21.9289 4.92893C21.5384 5.31946 21.5384 5.95262 21.9289 6.34314L27.5858 12L21.9289 17.6569C21.5384 18.0474 21.5384 18.6805 21.9289 19.0711C22.3195 19.4616 22.9526 19.4616 23.3431 19.0711L29.7071 12.7071ZM11 13L29 13L29 11L11 11L11 13Z" fill="#EEEEEE"/>
<path d="M1 11C0.447715 11 4.82823e-08 11.4477 0 12C-4.82823e-08 12.5523 0.447715 13 1 13L1 11ZM1 13L13 13L13 11L1 11L1 13Z" fill="#8874DD"/>
</svg>
