<svg width="18" height="22" viewBox="0 0 18 22" fill="none" xmlns="http://www.w3.org/2000/svg">
<g id="Group">
<path id="Vector" d="M15.1801 0H2.43359C1.36741 0 0.5 0.86741 0.5 1.93359V20.0664C0.5 21.1326 1.36741 22 2.43359 22H15.1801C16.2462 22 17.1137 21.1326 17.1137 20.0664V1.93359C17.1137 0.86741 16.2462 0 15.1801 0ZM3.12509 3.79629C3.12509 3.5127 3.35712 3.28066 3.64072 3.28066H14.1454C14.429 3.28066 14.661 3.5127 14.661 3.79629V5.76207C14.6611 6.04566 14.4291 6.27769 14.1455 6.27769H3.64072C3.35712 6.27769 3.12509 6.04566 3.12509 5.76207V3.79629ZM9.40957 10.8451H8.20417C7.84817 10.8451 7.55964 10.5565 7.55964 10.2006V9.32473C7.55964 8.96878 7.84822 8.6802 8.20417 8.6802H9.40957C9.76552 8.6802 10.0541 8.96878 10.0541 9.32473V10.2006C10.0541 10.5565 9.76552 10.8451 9.40957 10.8451ZM10.0541 13.4765V14.3523C10.0541 14.7082 9.76552 14.9968 9.40957 14.9968H8.20417C7.84822 14.9968 7.55964 14.7082 7.55964 14.3523V13.4765C7.55964 13.1205 7.84817 12.8319 8.20417 12.8319H9.40957C9.76552 12.8319 10.0541 13.1205 10.0541 13.4765ZM5.44699 18.504C5.44699 18.86 5.15841 19.1486 4.80246 19.1486H3.59706C3.24111 19.1486 2.95253 18.86 2.95253 18.504V17.6282C2.95253 17.2722 3.24111 16.9837 3.59706 16.9837H4.80246C5.15841 16.9837 5.44699 17.2722 5.44699 17.6282V18.504ZM5.44699 14.3523C5.44699 14.7082 5.15841 14.9968 4.80246 14.9968H3.59706C3.24111 14.9968 2.95253 14.7082 2.95253 14.3523V13.4765C2.95253 13.1205 3.24111 12.8319 3.59706 12.8319H4.80246C5.15841 12.8319 5.44699 13.1205 5.44699 13.4765V14.3523ZM5.44699 10.2006C5.44699 10.5565 5.15841 10.8451 4.80246 10.8451H3.59706C3.24111 10.8451 2.95253 10.5565 2.95253 10.2006V9.32473C2.95253 8.96878 3.24111 8.6802 3.59706 8.6802H4.80246C5.15841 8.6802 5.44699 8.96878 5.44699 9.32473V10.2006ZM14.6611 18.504C14.6611 18.86 14.3725 19.1486 14.0166 19.1486H8.20413C7.84817 19.1486 7.55959 18.86 7.55959 18.504V17.6282C7.55959 17.2722 7.84813 16.9837 8.20413 16.9837H14.0166C14.3725 16.9837 14.6611 17.2722 14.6611 17.6282V18.504ZM14.6611 14.3523C14.6611 14.7082 14.3725 14.9968 14.0166 14.9968H12.8111C12.4552 14.9968 12.1666 14.7082 12.1666 14.3523V13.4765C12.1666 13.1205 12.4552 12.8319 12.8111 12.8319H14.0166C14.3725 12.8319 14.6611 13.1205 14.6611 13.4765V14.3523ZM14.6611 10.2006C14.6611 10.5565 14.3725 10.8451 14.0166 10.8451H12.8111C12.4552 10.8451 12.1666 10.5565 12.1666 10.2006V9.32473C12.1666 8.96878 12.4552 8.6802 12.8111 8.6802H14.0166C14.3725 8.6802 14.6611 8.96878 14.6611 9.32473V10.2006Z" fill="white"/>
</g>
</svg>
