<svg width="32" height="32" viewBox="0 0 32 32" fill="none" xmlns="http://www.w3.org/2000/svg">
<rect width="32" height="32" rx="8" fill="#8874DD"/>
<path fill-rule="evenodd" clip-rule="evenodd" d="M11.2589 12.0357L12.2769 14.0713H16H19.7231L20.7411 12.0357L21.759 10H16H10.241L11.2589 12.0357ZM10.0015 16.2477L10 22L10.9639 21.2298L11.9277 20.4596L11.9267 17.3927L11.9256 14.3258L10.9643 12.4107L10.0029 10.4955L10.0015 16.2477ZM21.0289 12.4241L20.0714 14.3393L20.0719 17.3994L20.0723 20.4596L21.0361 21.2298L22 22V16.2544C22 13.0944 21.9969 10.5089 21.9932 10.5089C21.9895 10.5089 21.5555 11.3708 21.0289 12.4241ZM11.2942 10.6697C11.2271 10.6968 11.1786 10.7748 11.1786 10.8555C11.1786 10.8859 11.4801 11.5139 11.8487 12.2509C12.4021 13.3576 12.5307 13.5954 12.587 13.6168C12.6798 13.6521 19.3202 13.6521 19.413 13.6168C19.4693 13.5954 19.5979 13.3576 20.1513 12.2509C20.5199 11.5139 20.8214 10.8821 20.8214 10.8468C20.8214 10.8115 20.7984 10.7542 20.7702 10.7195L20.719 10.6562L16.0358 10.6511C13.3695 10.6482 11.3275 10.6562 11.2942 10.6697ZM11.7411 11.0846C11.7411 11.0918 11.8343 11.2847 11.9483 11.5131L12.1554 11.9285H13.9706H15.7857V11.5V11.0714H13.7634C12.6511 11.0714 11.7411 11.0773 11.7411 11.0846ZM16.2143 11.5V11.9285H18.0294H19.8446L20.0517 11.5131C20.1657 11.2847 20.2589 11.0918 20.2589 11.0846C20.2589 11.0773 19.3489 11.0714 18.2366 11.0714H16.2143V11.5ZM12.3839 12.3703C12.3839 12.3775 12.4772 12.5703 12.5911 12.7988L12.7983 13.2142H14.292H15.7857V12.7856V12.3571H14.0848C13.1493 12.3571 12.3839 12.363 12.3839 12.3703ZM16.2143 12.7856V13.2142H17.708H19.2017L19.4089 12.7988C19.5228 12.5703 19.6161 12.3775 19.6161 12.3703C19.6161 12.363 18.8507 12.3571 17.9152 12.3571H16.2143V12.7856ZM12.3571 17.3927V20.2855H16H19.6429V17.3927V14.4999H16H12.3571V17.3927Z" fill="white"/>
</svg>
