<svg width="182" height="61" viewBox="0 0 182 61" fill="none" xmlns="http://www.w3.org/2000/svg">
<path d="M0 34.8569L34.7949 -0.000244141L69.5898 34.8569H58.4057L34.7949 10.5814L16.1548 29.2549L37.9016 51.0406L32.3095 56.6426L10.5627 34.8569H0Z" fill="#2E8EC7"/>
<path d="M34.7948 22.408L27.9601 29.2549L49.7069 51.0406L39.7655 60.9998H59.0269V46.6835L34.7948 22.408Z" fill="#2E8EC7"/>
<path d="M10.5627 61V47.3062L24.2321 61H10.5627Z" fill="#2E8EC7"/>
<path d="M81.3191 13.696H88.8391C91.2498 13.696 93.1164 14.2827 94.4391 15.456C95.8258 16.672 96.5191 18.4 96.5191 20.64C96.5191 22.7307 95.9111 24.4054 94.6951 25.664C93.4578 26.9227 91.6444 27.552 89.2551 27.552H86.2471V35.04H81.3191V13.696ZM86.2471 17.728V23.52H88.0071C89.2231 23.52 90.1084 23.2534 90.6631 22.72C91.1964 22.1867 91.4631 21.4827 91.4631 20.608C91.4631 19.712 91.1964 19.0187 90.6631 18.528C90.1084 17.9947 89.1911 17.728 87.9111 17.728H86.2471ZM97.4236 13.696H102.928L107.408 23.552L111.696 13.696H117.008L107.248 35.04H101.936L105.04 28.896L97.4236 13.696ZM124.466 13.696V21.824H132.978V13.696H137.906V35.04H132.978V25.984H124.466V35.04H119.538V13.696H124.466ZM153.225 13.216C156.596 13.216 159.348 14.2507 161.481 16.32C163.7 18.4747 164.809 21.1627 164.809 24.384C164.809 27.5627 163.7 30.2294 161.481 32.384C159.326 34.4747 156.574 35.52 153.225 35.52C149.854 35.52 147.081 34.4747 144.905 32.384C143.86 31.4027 143.038 30.2294 142.441 28.864C141.865 27.4774 141.577 26.0054 141.577 24.448C141.577 22.9547 141.876 21.4827 142.473 20.032C143.092 18.56 143.892 17.3334 144.873 16.352C146.964 14.2614 149.748 13.216 153.225 13.216ZM153.193 17.76C151.294 17.76 149.737 18.368 148.521 19.584C147.262 20.8 146.633 22.4107 146.633 24.416C146.633 26.336 147.284 27.936 148.585 29.216C149.822 30.3894 151.348 30.976 153.161 30.976C155.102 30.976 156.681 30.368 157.897 29.152C159.134 27.9574 159.753 26.368 159.753 24.384C159.753 22.4214 159.134 20.8214 157.897 19.584C156.638 18.368 155.07 17.76 153.193 17.76Z" fill="#28292E"/>
<path d="M86.1486 46.8599H87.5626V56.6599H86.1486V52.3619H83.3766V56.6599H81.9626V46.8599H83.3766V51.0319H86.1486V46.8599ZM91.6932 49.0999C93.2752 49.0999 94.0872 50.0659 94.0872 51.7599V56.6599H92.9812L92.8832 55.9739C92.5892 56.4639 92.0572 56.8419 91.2452 56.8419C89.8872 56.8419 88.9772 55.9459 88.9772 54.5599C88.9772 53.0479 90.0272 52.2779 91.6512 52.2779H92.7292V51.7599C92.7292 50.8919 92.4072 50.4019 91.6652 50.4019C91.0632 50.4019 90.6152 50.7239 90.5452 51.3819H89.1872C89.2572 49.9679 90.2092 49.0999 91.6932 49.0999ZM92.7292 54.4619V53.4539H91.6512C90.8252 53.4539 90.3492 53.8319 90.3492 54.5599C90.3492 55.2319 90.7832 55.6379 91.5252 55.6379C92.2672 55.6379 92.7292 55.1619 92.7292 54.4619ZM99.5672 49.2819V50.5559H97.8732V56.6599H96.5292V50.5559H94.8492V49.2819H99.5672ZM102.541 49.2819H104.809V56.6599H103.493V54.1679H102.695L101.365 56.6599H99.8254L101.393 53.9719C100.637 53.6639 100.063 52.8939 100.063 51.6899C100.063 50.1919 101.071 49.2819 102.541 49.2819ZM103.493 53.0059V50.5139H102.597C101.813 50.5139 101.393 50.9619 101.393 51.7319C101.393 52.5579 101.785 53.0059 102.569 53.0059H103.493ZM112.915 56.6599L111.053 53.4959L110.633 53.9719V56.6599H109.331V53.9859L108.897 53.4959L107.035 56.6599H105.509L108.057 52.4459L105.775 49.2819H107.357L108.449 50.9619C108.729 51.4099 109.037 51.8999 109.331 52.3899V49.2819H110.633V52.3899C110.927 51.8999 111.235 51.4099 111.515 50.9619L112.607 49.2819H114.189L111.907 52.4459L114.441 56.6599H112.915ZM118.625 49.2819H119.983V56.6599H118.625V53.5099H116.567V56.6599H115.209V49.2819H116.567V52.2499H118.625V49.2819ZM124.127 51.8439C125.527 51.8439 126.563 52.8099 126.563 54.2379C126.563 55.6799 125.527 56.6599 124.127 56.6599H121.607V49.3099H122.965V51.8439H124.127ZM127.459 49.3099H128.817V56.6599H127.459V49.3099ZM123.987 55.4279C124.701 55.4279 125.191 54.9799 125.191 54.2239C125.191 53.5099 124.701 53.0759 123.987 53.0759H122.965V55.4279H123.987ZM134.121 54.3499H135.479C135.353 55.9179 134.387 56.8139 132.791 56.8139C131.251 56.8139 130.285 55.8059 130.285 54.0419V51.8439C130.285 50.0939 131.251 49.0999 132.805 49.0999C134.387 49.0999 135.381 50.0939 135.381 51.8439V53.4819H131.643V54.0419C131.643 55.0499 132.077 55.5119 132.819 55.5119C133.645 55.5119 133.995 55.1479 134.121 54.3499ZM132.819 50.3739C132.077 50.3739 131.643 50.8219 131.643 51.8299V52.4599H134.037V51.8299C134.037 50.8219 133.589 50.3739 132.819 50.3739ZM144.592 49.2819V56.6599H143.234V50.5279H141.176V56.6599H139.818V49.2819H144.592ZM148.638 56.8279C147.042 56.8279 146.048 55.8339 146.048 54.0279V51.8999C146.048 50.0939 147.042 49.0999 148.638 49.0999C150.248 49.0999 151.242 50.0939 151.242 51.8999V54.0279C151.242 55.8339 150.248 56.8279 148.638 56.8279ZM148.638 55.5119C149.408 55.5119 149.87 55.0639 149.87 54.0279V51.8999C149.87 50.8639 149.408 50.4159 148.638 50.4159C147.882 50.4159 147.42 50.8639 147.42 51.8999V54.0279C147.42 55.0639 147.882 55.5119 148.638 55.5119ZM156.305 49.2819V50.5559H154.611V56.6599H153.267V50.5559H151.587V49.2819H156.305ZM159.453 56.8279C157.857 56.8279 156.863 55.8339 156.863 54.0279V51.8999C156.863 50.0939 157.857 49.0999 159.453 49.0999C161.063 49.0999 162.057 50.0939 162.057 51.8999V54.0279C162.057 55.8339 161.063 56.8279 159.453 56.8279ZM159.453 55.5119C160.223 55.5119 160.685 55.0639 160.685 54.0279V51.8999C160.685 50.8639 160.223 50.4159 159.453 50.4159C158.697 50.4159 158.235 50.8639 158.235 51.8999V54.0279C158.235 55.0639 158.697 55.5119 159.453 55.5119ZM162.713 56.7579V55.4559C163.455 55.4559 163.609 54.6579 163.721 53.4819C163.805 52.4179 163.903 50.7099 163.931 49.2819H168.229V56.6599H166.885V50.5279H165.233C165.219 51.3959 165.135 52.8519 165.051 53.7059C164.869 55.7639 164.169 56.7579 162.713 56.7579ZM173.691 56.6599L171.689 53.4959L171.199 54.0279V56.6599H169.855V49.2819H171.199V52.4179L172.067 51.0599L173.285 49.2819H174.895L172.571 52.4319L175.245 56.6599H173.691ZM176.035 56.6599V49.2819H177.351V52.3899C177.351 52.9779 177.351 53.6359 177.323 54.4339L177.365 54.4619C177.477 54.0839 177.897 52.9779 178.135 52.3759L179.563 49.2819H180.949V56.6599H179.633V53.8319C179.633 53.1179 179.661 52.1939 179.703 51.4519L179.661 51.4379C179.591 51.7459 179.129 53.0759 178.835 53.7059L177.421 56.6599H176.035Z" fill="#28292E"/>
</svg>
