<svg width="24" height="25" viewBox="0 0 24 25" fill="none" xmlns="http://www.w3.org/2000/svg">
<path d="M13.6714 15.2443C13.1739 15.576 12.5959 15.7513 12 15.7513C11.4041 15.7513 10.8262 15.576 10.3286 15.2443L2.13316 9.78049C2.08792 9.75024 2.04352 9.71876 2 9.68607L2 18.6391C2 19.6656 2.83301 20.4802 3.84113 20.4802H20.1588C21.1853 20.4802 22 19.6472 22 18.6391V9.68604C21.9564 9.7188 21.9119 9.75035 21.8665 9.78065L13.6714 15.2443Z" fill="#28292E"/>
<path d="M2.7832 8.80535L10.9786 14.2692C11.2889 14.476 11.6444 14.5794 12 14.5794C12.3555 14.5794 12.7111 14.476 13.0214 14.2692L21.2168 8.80535C21.7072 8.47859 22 7.93172 22 7.34149C22 6.3266 21.1743 5.50098 20.1595 5.50098H3.84051C2.82567 5.50102 2 6.32664 2 7.34246C1.9997 7.632 2.07106 7.9171 2.20771 8.17236C2.34437 8.42761 2.54208 8.64508 2.7832 8.80535Z" fill="#28292E"/>
</svg>
