<svg width="24" height="24" viewBox="0 0 24 24" fill="none" xmlns="http://www.w3.org/2000/svg">
<path d="M9.71819 4.00073H5.43248C4.6435 4.00073 4.00391 4.64033 4.00391 5.4293V9.71502C4.00391 10.504 4.6435 11.1436 5.43248 11.1436H9.71819C10.5072 11.1436 11.1468 10.504 11.1468 9.71502V5.4293C11.1468 4.64033 10.5072 4.00073 9.71819 4.00073Z" fill="#EEEEEE"/>
<path d="M17.8627 4.00073H13.577C12.788 4.00073 12.1484 4.64033 12.1484 5.4293V9.71502C12.1484 10.504 12.788 11.1436 13.577 11.1436H17.8627C18.6517 11.1436 19.2913 10.504 19.2913 9.71502V5.4293C19.2913 4.64033 18.6517 4.00073 17.8627 4.00073Z" fill="#EEEEEE"/>
<path d="M9.71819 12.1438H5.43248C4.6435 12.1438 4.00391 12.7834 4.00391 13.5724V17.8581C4.00391 18.6471 4.6435 19.2867 5.43248 19.2867H9.71819C10.5072 19.2867 11.1468 18.6471 11.1468 17.8581V13.5724C11.1468 12.7834 10.5072 12.1438 9.71819 12.1438Z" fill="#EEEEEE"/>
<path d="M17.8627 12.1438H13.577C12.788 12.1438 12.1484 12.7834 12.1484 13.5724V17.8581C12.1484 18.6471 12.788 19.2867 13.577 19.2867H17.8627C18.6517 19.2867 19.2913 18.6471 19.2913 17.8581V13.5724C19.2913 12.7834 18.6517 12.1438 17.8627 12.1438Z" fill="#EEEEEE"/>
</svg>
