<svg width="24" height="24" viewBox="0 0 24 24" fill="none" xmlns="http://www.w3.org/2000/svg">
<path fill-rule="evenodd" clip-rule="evenodd" d="M5.67857 6.71495L7.03582 9.42917H12H16.9642L18.3214 6.71495L19.6787 4.00073H12H4.32132L5.67857 6.71495ZM4.00196 12.3311L4 20.0007L5.28514 18.9738L6.57029 17.9468L6.56889 13.8576L6.5675 9.76845L5.28571 7.21494L4.00393 4.66143L4.00196 12.3311ZM18.7053 7.23287L17.4286 9.78645L17.4291 13.8666L17.4297 17.9468L18.7149 18.9738L20 20.0007V12.34C20 8.1266 19.9959 4.67929 19.991 4.67929C19.986 4.67929 19.4074 5.8284 18.7053 7.23287ZM5.72554 4.89367C5.63614 4.92985 5.57143 5.03385 5.57143 5.14135C5.57143 5.18199 5.9735 6.01925 6.46493 7.00191C7.20282 8.47748 7.37425 8.79461 7.44939 8.82315C7.57311 8.87018 16.4269 8.87018 16.5506 8.82315C16.6258 8.79461 16.7972 8.47748 17.5351 7.00191C18.0265 6.01925 18.4286 5.17681 18.4286 5.12981C18.4286 5.08278 18.3979 5.00639 18.3603 4.96003L18.292 4.87571L12.0478 4.86889C8.49261 4.865 5.76996 4.87568 5.72554 4.89367ZM6.32143 5.44684C6.32143 5.45648 6.44575 5.71362 6.59768 6.01825L6.87393 6.5721H9.29411H11.7143V6.00068V5.42927H9.01786C7.53482 5.42927 6.32143 5.43716 6.32143 5.44684ZM12.2857 6.00068V6.5721H14.7059H17.1261L17.4023 6.01825C17.5543 5.71362 17.6786 5.45648 17.6786 5.44684C17.6786 5.43716 16.4652 5.42927 14.9821 5.42927H12.2857V6.00068ZM7.17857 7.16108C7.17857 7.17073 7.30289 7.42786 7.45482 7.7325L7.73107 8.28634H9.72268H11.7143V7.71493V7.14351H9.44643C8.19911 7.14351 7.17857 7.1514 7.17857 7.16108ZM12.2857 7.71493V8.28634H14.2773H16.2689L16.5452 7.7325C16.6971 7.42786 16.8214 7.17073 16.8214 7.16108C16.8214 7.1514 15.8009 7.14351 14.5536 7.14351H12.2857V7.71493ZM7.14286 13.8576V17.7147H12H16.8571V13.8576V10.0006H12H7.14286V13.8576Z" fill="#EEEEEE"/>
</svg>
