<svg width="24" height="24" viewBox="0 0 24 24" fill="none" xmlns="http://www.w3.org/2000/svg">
<path d="M14.356 3.59543C14.3771 3.56889 14.4034 3.54692 14.4332 3.53086C14.4631 3.51479 14.4959 3.50496 14.5296 3.50197C14.5634 3.49897 14.5974 3.50288 14.6296 3.51345C14.6618 3.52401 14.6916 3.54102 14.717 3.56343L15.638 4.37543L12.739 8.00043H14.66L16.766 5.36843L18.418 6.82543C18.4668 6.8686 18.4969 6.92914 18.5018 6.99414C18.5066 7.05915 18.4859 7.12349 18.444 7.17343L17.754 8.00043H19.698C19.9388 7.64791 20.0424 7.21952 19.9894 6.79591C19.9363 6.3723 19.7303 5.9827 19.41 5.70043L15.71 2.43743C15.5315 2.28023 15.3228 2.16107 15.0968 2.08722C14.8707 2.01337 14.6319 1.98639 14.395 2.00791C14.1581 2.02944 13.9282 2.09902 13.7191 2.21242C13.51 2.32581 13.3262 2.48063 13.179 2.66743L8.976 8.00043H10.886L14.356 3.59543ZM5.25 7.50043C5.05109 7.50043 4.86032 7.57945 4.71967 7.7201C4.57902 7.86075 4.5 8.05152 4.5 8.25043C4.5 8.44934 4.57902 8.64011 4.71967 8.78076C4.86032 8.92141 5.05109 9.00043 5.25 9.00043H18.25C19.112 9.00043 19.9386 9.34284 20.5481 9.95234C21.1576 10.5618 21.5 11.3885 21.5 12.2504V18.7504C21.5 19.6124 21.1576 20.439 20.5481 21.0485C19.9386 21.658 19.112 22.0004 18.25 22.0004H6.25C5.38805 22.0004 4.5614 21.658 3.9519 21.0485C3.34241 20.439 3 19.6124 3 18.7504V8.25043C3 7.65369 3.23705 7.0814 3.65901 6.65944C4.08097 6.23748 4.65326 6.00043 5.25 6.00043H9.57L8.378 7.50043H5.25ZM15.5 15.7504C15.5 16.1644 15.836 16.5004 16.25 16.5004H18.25C18.4489 16.5004 18.6397 16.4214 18.7803 16.2808C18.921 16.1401 19 15.9493 19 15.7504C19 15.5515 18.921 15.3608 18.7803 15.2201C18.6397 15.0795 18.4489 15.0004 18.25 15.0004H16.25C16.0511 15.0004 15.8603 15.0795 15.7197 15.2201C15.579 15.3608 15.5 15.5515 15.5 15.7504Z" fill="#EEEEEE"/>
</svg>
