<svg width="60" height="60" viewBox="0 0 60 60" fill="none" xmlns="http://www.w3.org/2000/svg">
<path d="M23.131 13.3077L24.6809 9.30681C24.9423 8.62942 25.4022 8.04676 26.0003 7.63514C26.5984 7.22352 27.3069 7.00214 28.033 7H30.9886C31.7147 7.00214 32.4232 7.22352 33.0213 7.63514C33.6195 8.04676 34.0793 8.62942 34.3407 9.30681L35.8906 13.3077L41.153 16.3354L45.4062 15.6866C46.1144 15.5905 46.8352 15.7071 47.477 16.0215C48.1188 16.336 48.6526 16.8342 49.0106 17.4528L50.4524 19.9758C50.8218 20.6043 50.992 21.3299 50.9406 22.0571C50.8891 22.7842 50.6183 23.4787 50.164 24.0488L47.5328 27.4009V33.4563L50.2361 36.8084C50.6904 37.3785 50.9612 38.0729 51.0126 38.8001C51.0641 39.5272 50.8939 40.2529 50.5245 40.8813L49.0827 43.4044C48.7247 44.023 48.1909 44.5212 47.5491 44.8356C46.9073 45.1501 46.1865 45.2667 45.4783 45.1706L41.2251 44.5218L35.9627 47.5495L34.4128 51.5504C34.1514 52.2278 33.6915 52.8104 33.0934 53.222C32.4953 53.6337 31.7868 53.855 31.0607 53.8572H28.033C27.3069 53.855 26.5984 53.6337 26.0003 53.222C25.4022 52.8104 24.9423 52.2278 24.6809 51.5504L23.131 47.5495L17.8686 44.5218L13.6154 45.1706C12.9072 45.2667 12.1864 45.1501 11.5446 44.8356C10.9028 44.5212 10.369 44.023 10.011 43.4044L8.56927 40.8813C8.19982 40.2529 8.02961 39.5272 8.08109 38.8001C8.13257 38.0729 8.40332 37.3785 8.85762 36.8084L11.4888 33.4563V27.4009L8.78553 24.0488C8.33124 23.4787 8.06048 22.7842 8.009 22.0571C7.95752 21.3299 8.12774 20.6043 8.49718 19.9758L9.93894 17.4528C10.2969 16.8342 10.8308 16.336 11.4725 16.0215C12.1143 15.7071 12.8351 15.5905 13.5433 15.6866L17.7965 16.3354L23.131 13.3077ZM22.302 30.4286C22.302 31.8544 22.7248 33.2481 23.5169 34.4336C24.309 35.6191 25.4349 36.543 26.7521 37.0886C28.0694 37.6343 29.5188 37.777 30.9172 37.4989C32.3156 37.2207 33.6 36.5341 34.6082 35.526C35.6164 34.5178 36.303 33.2333 36.5811 31.835C36.8593 30.4366 36.7165 28.9871 36.1709 27.6699C35.6253 26.3527 34.7013 25.2268 33.5158 24.4347C32.3303 23.6426 30.9366 23.2198 29.5108 23.2198C27.5989 23.2198 25.7653 23.9793 24.4134 25.3312C23.0615 26.6831 22.302 28.5167 22.302 30.4286Z" fill="#8874dd"/>
</svg>
