<svg width="24" height="24" viewBox="0 0 24 24" fill="none" xmlns="http://www.w3.org/2000/svg">
<path d="M21.3096 18.2758C21.3096 18.5758 21.243 18.8841 21.1013 19.1841C20.9596 19.4841 20.7763 19.7675 20.5346 20.0341C20.1263 20.4841 19.6763 20.8091 19.168 21.0175C18.668 21.2258 18.1263 21.3341 17.543 21.3341C16.693 21.3341 15.7846 21.1341 14.8263 20.7258C13.868 20.3175 12.9096 19.7675 11.9596 19.0758C11.0013 18.3758 10.093 17.6008 9.2263 16.7425C8.36797 15.8758 7.59297 14.9675 6.9013 14.0175C6.21797 13.0675 5.66797 12.1175 5.26797 11.1758C4.86797 10.2258 4.66797 9.31748 4.66797 8.45081C4.66797 7.88415 4.76797 7.34248 4.96797 6.84248C5.16797 6.33415 5.48464 5.86748 5.9263 5.45081C6.45964 4.92581 7.04297 4.66748 7.65964 4.66748C7.89297 4.66748 8.1263 4.71748 8.33464 4.81748C8.5513 4.91748 8.74297 5.06748 8.89297 5.28415L10.8263 8.00915C10.9763 8.21748 11.0846 8.40915 11.1596 8.59248C11.2346 8.76748 11.2763 8.94248 11.2763 9.10081C11.2763 9.30081 11.218 9.50081 11.1013 9.69248C10.993 9.88415 10.8346 10.0841 10.6346 10.2841L10.0013 10.9425C9.90964 11.0341 9.86797 11.1425 9.86797 11.2758C9.86797 11.3425 9.8763 11.4008 9.89297 11.4675C9.91797 11.5341 9.94297 11.5841 9.95964 11.6341C10.1096 11.9091 10.368 12.2675 10.7346 12.7008C11.1096 13.1341 11.5096 13.5758 11.943 14.0175C12.393 14.4591 12.8263 14.8675 13.268 15.2425C13.7013 15.6091 14.0596 15.8591 14.343 16.0091C14.3846 16.0258 14.4346 16.0508 14.493 16.0758C14.5596 16.1008 14.6263 16.1091 14.7013 16.1091C14.843 16.1091 14.9513 16.0591 15.043 15.9675L15.6763 15.3425C15.8846 15.1341 16.0846 14.9758 16.2763 14.8758C16.468 14.7591 16.6596 14.7008 16.868 14.7008C17.0263 14.7008 17.193 14.7341 17.3763 14.8091C17.5596 14.8841 17.7513 14.9925 17.9596 15.1341L20.718 17.0925C20.9346 17.2425 21.0846 17.4175 21.1763 17.6258C21.2596 17.8341 21.3096 18.0425 21.3096 18.2758Z" fill="#28292E"/>
</svg>
