<svg width="61" height="60" viewBox="0 0 61 60" fill="none" xmlns="http://www.w3.org/2000/svg">
<g id="interface-setting-wrench--crescent-tool-construction-tools-wrench-setting-edit-adjust">
<path id="Vector" d="M52.2674 19.2286C52.202 18.8821 52.0627 18.5529 51.8586 18.2623C51.6545 17.9718 51.3902 17.7265 51.0827 17.5422L44.3133 24.1554C43.9975 24.4755 43.619 24.73 43.2003 24.9039C42.7815 25.0777 42.3312 25.1674 41.8763 25.1674C41.4213 25.1674 40.971 25.0777 40.5523 24.9039C40.1336 24.73 39.755 24.4755 39.4393 24.1554L36.8669 21.907C36.2467 21.2889 35.8993 20.4578 35.8993 19.5923C35.8993 18.7268 36.2467 17.8958 36.8669 17.2777L43.6363 10.6645C43.4887 10.3257 43.2666 10.0227 42.9859 9.777C42.7051 9.5313 42.3726 9.34888 42.0117 9.24264C39.6497 8.78249 37.203 8.97946 34.95 9.81112C32.697 10.6428 30.7283 12.0757 29.2681 13.9468C27.8078 15.8179 26.9147 18.0519 26.6903 20.3945C26.4659 22.7372 26.9193 25.0943 27.9989 27.1975L9.51838 45.0863C9.196 45.3942 8.93985 45.762 8.76497 46.168C8.59009 46.574 8.5 47.01 8.5 47.4505C8.5 47.891 8.59009 48.327 8.76497 48.733C8.93985 49.139 9.196 49.5068 9.51838 49.8147L10.7369 51.0051C11.0521 51.3201 11.4286 51.5703 11.8441 51.7411C12.2597 51.912 12.7061 52 13.1569 52C13.6078 52 14.0542 51.912 14.4698 51.7411C14.8853 51.5703 15.2618 51.3201 15.577 51.0051L34.0576 32.9841C36.2111 33.9864 38.607 34.3856 40.9788 34.1372C43.3506 33.8888 45.6055 33.0026 47.4925 31.5771C49.3796 30.1516 50.825 28.2427 51.668 26.0627C52.5109 23.8827 52.7184 21.5169 52.2674 19.2286Z" fill="#8874dd"/>
</g>
</svg>
