<svg width="32" height="32" viewBox="0 0 32 32" fill="none" xmlns="http://www.w3.org/2000/svg">
<rect width="32" height="32" rx="8" fill="#8874DD"/>
<path d="M14.2857 10H11.0714C10.4797 10 10 10.4797 10 11.0714V14.2857C10 14.8774 10.4797 15.3571 11.0714 15.3571H14.2857C14.8774 15.3571 15.3571 14.8774 15.3571 14.2857V11.0714C15.3571 10.4797 14.8774 10 14.2857 10Z" fill="white"/>
<path d="M20.3926 10H17.1784C16.5866 10 16.1069 10.4797 16.1069 11.0714V14.2857C16.1069 14.8774 16.5866 15.3571 17.1784 15.3571H20.3926C20.9844 15.3571 21.4641 14.8774 21.4641 14.2857V11.0714C21.4641 10.4797 20.9844 10 20.3926 10Z" fill="white"/>
<path d="M14.2857 16.1074H11.0714C10.4797 16.1074 10 16.5871 10 17.1789V20.3931C10 20.9849 10.4797 21.4646 11.0714 21.4646H14.2857C14.8774 21.4646 15.3571 20.9849 15.3571 20.3931V17.1789C15.3571 16.5871 14.8774 16.1074 14.2857 16.1074Z" fill="white"/>
<path d="M20.3926 16.1074H17.1784C16.5866 16.1074 16.1069 16.5871 16.1069 17.1789V20.3931C16.1069 20.9849 16.5866 21.4646 17.1784 21.4646H20.3926C20.9844 21.4646 21.4641 20.9849 21.4641 20.3931V17.1789C21.4641 16.5871 20.9844 16.1074 20.3926 16.1074Z" fill="white"/>
</svg>
