<svg width="40" height="41" viewBox="0 0 40 41" fill="none" xmlns="http://www.w3.org/2000/svg">
<path d="M0 40.501L2.81166 30.2293C1.07666 27.2226 0.165 23.8143 0.166666 20.3193C0.171666 9.39264 9.06331 0.500977 19.9883 0.500977C25.2899 0.502643 30.2666 2.56764 34.0099 6.31431C37.7516 10.061 39.8116 15.041 39.8099 20.3376C39.8049 31.266 30.9133 40.1576 19.9883 40.1576C16.6716 40.156 13.4033 39.3243 10.5083 37.7443L0 40.501ZM10.995 34.156C13.7883 35.8143 16.455 36.8076 19.9816 36.8093C29.0616 36.8093 36.4583 29.4193 36.4633 20.3343C36.4666 11.231 29.1049 3.85098 19.995 3.84764C10.9083 3.84764 3.51666 11.2376 3.51333 20.321C3.51166 24.0293 4.59832 26.806 6.42332 29.711L4.75832 35.791L10.995 34.156ZM29.9733 25.0493C29.8499 24.8426 29.5199 24.7193 29.0233 24.471C28.5283 24.2226 26.0933 23.0243 25.6383 22.8593C25.1849 22.6943 24.8549 22.611 24.5233 23.1076C24.1933 23.6026 23.2433 24.7193 22.9549 25.0493C22.6666 25.3793 22.3766 25.421 21.8816 25.1726C21.3866 24.9243 19.79 24.4026 17.8983 22.7143C16.4266 21.401 15.4316 19.7793 15.1433 19.2826C14.855 18.7876 15.1133 18.5193 15.36 18.2726C15.5833 18.051 15.855 17.6943 16.1033 17.4043C16.355 17.1176 16.4366 16.911 16.6033 16.5793C16.7683 16.2493 16.6866 15.9593 16.5616 15.711C16.4366 15.4643 15.4466 13.026 15.035 12.0343C14.6316 11.0693 14.2233 11.1993 13.92 11.1843L12.97 11.1676C12.64 11.1676 12.1033 11.291 11.65 11.7876C11.1966 12.2843 9.91664 13.481 9.91664 15.9193C9.91664 18.3576 11.6916 20.7126 11.9383 21.0426C12.1866 21.3726 15.43 26.376 20.3983 28.521C21.58 29.031 22.5033 29.336 23.2216 29.5643C24.4083 29.941 25.4883 29.8876 26.3416 29.761C27.2933 29.6193 29.2716 28.5626 29.6849 27.406C30.0983 26.2476 30.0983 25.256 29.9733 25.0493Z" fill="#28292E"/>
</svg>
