<svg width="32" height="32" viewBox="0 0 32 32" fill="none" xmlns="http://www.w3.org/2000/svg">
<rect width="32" height="32" rx="8" fill="#8874DD"/>
<path d="M17.6557 10.9568C17.6685 10.9409 17.6845 10.9277 17.7026 10.9181C17.7208 10.9084 17.7407 10.9025 17.7613 10.9008C17.7818 10.899 17.8025 10.9013 17.8221 10.9076C17.8417 10.914 17.8597 10.9242 17.8752 10.9376L18.4353 11.4248L16.6724 13.5999H17.8405L19.1212 12.0206L20.1258 12.8949C20.1555 12.9208 20.1738 12.9571 20.1767 12.9961C20.1797 13.0351 20.1671 13.0737 20.1416 13.1037L19.722 13.5999H20.9042C21.0506 13.3884 21.1136 13.1313 21.0814 12.8772C21.0491 12.623 20.9238 12.3892 20.7291 12.2199L18.4791 10.262C18.3705 10.1677 18.2436 10.0962 18.1061 10.0519C17.9686 10.0076 17.8234 9.99139 17.6794 10.0043C17.5354 10.0172 17.3955 10.059 17.2684 10.127C17.1412 10.1951 17.0295 10.2879 16.9399 10.4L14.3841 13.5999H15.5455L17.6557 10.9568ZM12.1182 13.2999C11.9973 13.2999 11.8813 13.3473 11.7957 13.4317C11.7102 13.5161 11.6622 13.6305 11.6622 13.7499C11.6622 13.8692 11.7102 13.9837 11.7957 14.0681C11.8813 14.1525 11.9973 14.1999 12.1182 14.1999H20.0236C20.5478 14.1999 21.0505 14.4053 21.4211 14.771C21.7918 15.1367 22 15.6327 22 16.1499V20.05C22 20.5672 21.7918 21.0631 21.4211 21.4288C21.0505 21.7946 20.5478 22 20.0236 22H12.7264C12.2022 22 11.6995 21.7946 11.3289 21.4288C10.9582 21.0631 10.75 20.5672 10.75 20.05V13.7499C10.75 13.3918 10.8942 13.0484 11.1507 12.7953C11.4073 12.5421 11.7554 12.3999 12.1182 12.3999H14.7453L14.0204 13.2999H12.1182ZM18.3514 18.2499C18.3514 18.4983 18.5557 18.7 18.8074 18.7H20.0236C20.1446 18.7 20.2606 18.6525 20.3461 18.5681C20.4317 18.4838 20.4797 18.3693 20.4797 18.2499C20.4797 18.1306 20.4317 18.0161 20.3461 17.9317C20.2606 17.8473 20.1446 17.7999 20.0236 17.7999H18.8074C18.6865 17.7999 18.5705 17.8473 18.4849 17.9317C18.3994 18.0161 18.3514 18.1306 18.3514 18.2499Z" fill="white"/>
</svg>
